<svg xmlns="http://www.w3.org/2000/svg" width="40" height="40" viewBox="0 0 40 40">
  <!-- Background Circle -->
  <circle cx="20" cy="20" r="19" fill="#FFA500" stroke="#FF8C00" stroke-width="2"/>
  
  <!-- Inner Circle -->
  <circle cx="20" cy="20" r="15" fill="#FFD700" stroke="#FF8C00" stroke-width="1"/>
  
  <!-- Club Symbol (Center) -->
  <path d="M20 14 C18 14 16.5 15.5 16.5 17.5 C16.5 19 17.5 20.5 19 20.5 C17.5 20.5 16.5 22 16.5 23.5 C16.5 25.5 18 27 20 27 C22 27 23.5 25.5 23.5 23.5 C23.5 22 22.5 20.5 21 20.5 C22.5 20.5 23.5 19 23.5 17.5 C23.5 15.5 22 14 20 14 Z" fill="#333333" stroke="#222222" stroke-width="0.5"/>
  
  <!-- Spade Symbol (Top) -->
  <path d="M14 12 C14 9 17 7 20 10 C23 7 26 9 26 12 C26 15 23 17 20 17 C17 17 14 15 14 12 Z" fill="#333333" stroke="#222222" stroke-width="0.5"/>
  <path d="M20 17 L20 20" stroke="#222222" stroke-width="1"/>
  
  <!-- Heart Symbol (Left) -->
  <path d="M10 20 C10 17 13 15 15 18 C17 15 20 17 20 20 C20 23 17 25 15 25 C13 25 10 23 10 20 Z" fill="#FF4500" stroke="#CC3300" stroke-width="0.5"/>
  
  <!-- Diamond Symbol (Right) -->
  <path d="M20 20 L25 15 L30 20 L25 25 Z" fill="#FF4500" stroke="#CC3300" stroke-width="0.5"/>
  
  <!-- Trophy Symbol (Bottom) -->
  <path d="M17 28 L23 28 L22 32 L18 32 Z" fill="#FFD700" stroke="#CC9900" stroke-width="0.5"/>
  <path d="M18 28 L18 26 L22 26 L22 28" fill="none" stroke="#CC9900" stroke-width="0.5"/>
  <ellipse cx="20" cy="26" rx="3" ry="1" fill="#FFD700" stroke="#CC9900" stroke-width="0.5"/>
</svg>